<?xml version="1.0" encoding="UTF-8" standalone="yes"?>
<!DOCTYPE svg PUBLIC "-//W3C//DTD SVG 1.0//EN" "http://www.w3.org/TR/2001/REC-SVG-20010904/DTD/svg10.dtd">
<svg height="500" width="1000" xmlns="http://www.w3.org/2000/svg" xmlns:svg="http://www.w3.org/2000/svg" xmlns:xlink="http://www.w3.org/1999/xlink">
	<line style="stroke: black" x1="265" x2="546.938752907299" y1="75" y2="75" />
	<text font-size="30%" x="60" y="75">aPM_Chr1a_34580905_34593123</text>
	<line style="stroke: black" x1="386.091298408831" x2="415.118137852106" y1="81" y2="81" />
	<rect height="8" style="fill: black" width="1.86897773839849" x="386.091298408831" y="77" />
	<rect height="8" style="fill: black" width="1.86897773839849" x="386.091298408831" y="77" />
	<rect height="8" style="fill: black" width="0.922951969579503" x="402.473695868867" y="77" />
	<rect height="8" style="fill: black" width="0.922951969579503" x="402.473695868867" y="77" />
	<rect height="8" style="fill: black" width="1.61516594676413" x="404.273452209547" y="77" />
	<rect height="8" style="fill: black" width="1.61516594676413" x="404.273452209547" y="77" />
	<rect height="8" style="fill: black" width="0.507623583268727" x="414.633588068077" y="77" />
	<rect height="8" style="fill: black" width="0.507623583268727" x="414.633588068077" y="77" />
	<line style="stroke: black" x1="265.046147598479" x2="368.924391774652" y1="81" y2="81" />
	<rect height="8" style="fill: black" width="18.551334588548" x="265.046147598479" y="77" />
	<rect height="8" style="fill: black" width="14.767231513272" x="265.046147598479" y="77" />
	<rect height="8" style="fill: black" width="3.78410307527596" x="279.813379111751" y="77" />
	<rect height="8" style="fill: black" width="9.89865987374017" x="294.303725034149" y="77" />
	<rect height="8" style="fill: black" width="9.89865987374017" x="294.303725034149" y="77" />
	<rect height="8" style="fill: black" width="17.3976446265736" x="321.969210322295" y="77" />
	<rect height="8" style="fill: black" width="1.4767231513272" x="339.366854948868" y="77" />
	<rect height="8" style="fill: black" width="18.8743677779008" x="321.969210322295" y="77" />
	<rect height="8" style="fill: black" width="15.5748144866541" x="353.372651087237" y="77" />
	<rect height="8" style="fill: black" width="15.5748144866541" x="353.372651087237" y="77" />
	<line style="stroke: black" x1="446.47543101857" x2="546.938752907299" y1="81" y2="81" />
	<rect height="8" style="fill: black" width="11.5368996197438" x="446.47543101857" y="77" />
	<rect height="8" style="fill: black" width="0.992173367297966" x="458.012330638314" y="77" />
	<rect height="8" style="fill: black" width="1.89205153763798" x="462.23483589914" y="77" />
	<rect height="8" style="fill: black" width="2.791929707978" x="466.688079152361" y="77" />
	<rect height="8" style="fill: black" width="1.52287074980618" x="474.533170893787" y="77" />
	<rect height="8" style="fill: black" width="2.49197031786466" x="477.809650385794" y="77" />
	<rect height="8" style="fill: black" width="1.52287074980618" x="487.823679255732" y="77" />
	<rect height="8" style="fill: black" width="0.66914017794514" x="503.65230553402" y="77" />
	<rect height="8" style="fill: black" width="2.09971573079337" x="508.936205559863" y="77" />
	<rect height="8" style="fill: black" width="0.0461475984789752" x="511.035921290656" y="77" />
	<rect height="8" style="fill: black" width="2.09971573079337" x="544.862110975745" y="77" />
	<rect height="8" style="fill: black" width="2.09971573079337" x="544.862110975745" y="77" />
	<line style="stroke: black" x1="265" x2="681.666666666667" y1="185" y2="185" />
	<text font-size="30%" x="60" y="185">bPH_Chr01_52386120_52404177</text>
	<line style="stroke: black" x1="577.096208513309" x2="681.666666666667" y1="191" y2="191" />
	<rect height="8" style="fill: black" width="12.5290729870418" x="577.096208513309" y="187" />
	<rect height="8" style="fill: black" width="11.5368996197438" x="577.096208513309" y="187" />
	<rect height="8" style="fill: black" width="0.992173367297966" x="588.633108133053" y="187" />
	<rect height="8" style="fill: black" width="1.89205153763798" x="592.901760992358" y="187" />
	<rect height="8" style="fill: black" width="1.89205153763798" x="592.901760992358" y="187" />
	<rect height="8" style="fill: black" width="2.791929707978" x="597.355004245579" y="187" />
	<rect height="8" style="fill: black" width="2.791929707978" x="597.355004245579" y="187" />
	<rect height="8" style="fill: black" width="1.52287074980618" x="605.200095987005" y="187" />
	<rect height="8" style="fill: black" width="1.52287074980618" x="605.200095987005" y="187" />
	<rect height="8" style="fill: black" width="2.49197031786466" x="608.453501679773" y="187" />
	<rect height="8" style="fill: black" width="2.49197031786466" x="608.453501679773" y="187" />
	<rect height="8" style="fill: black" width="1.52287074980618" x="618.421382951231" y="187" />
	<rect height="8" style="fill: black" width="1.52287074980618" x="618.421382951231" y="187" />
	<rect height="8" style="fill: black" width="0.66914017794514" x="633.580869051575" y="187" />
	<rect height="8" style="fill: black" width="0.66914017794514" x="633.580869051575" y="187" />
	<rect height="8" style="fill: black" width="2.09971573079337" x="638.864769077417" y="187" />
	<rect height="8" style="fill: black" width="2.09971573079337" x="638.864769077417" y="187" />
	<rect height="8" style="fill: black" width="3.27647949200724" x="678.413260973899" y="187" />
	<rect height="8" style="fill: black" width="3.27647949200724" x="678.413260973899" y="187" />
	<line style="stroke: black" x1="504.390667109684" x2="575.411821168826" y1="179" y2="179" />
	<rect height="8" style="fill: black" width="23.9967512090671" x="504.390667109684" y="175" />
	<rect height="8" style="fill: black" width="17.2822756303762" x="504.390667109684" y="175" />
	<rect height="8" style="fill: black" width="6.71447557869089" x="521.67294274006" y="175" />
	<rect height="8" style="fill: black" width="3.04574149961236" x="542.485509654078" y="175" />
	<rect height="8" style="fill: black" width="3.04574149961236" x="542.485509654078" y="175" />
	<rect height="8" style="fill: black" width="6.36836859009857" x="548.161664266992" y="175" />
	<rect height="8" style="fill: black" width="6.36836859009857" x="548.161664266992" y="175" />
	<rect height="8" style="fill: black" width="12.4137039908443" x="563.021190977222" y="175" />
	<rect height="8" style="fill: black" width="4.22250526082623" x="563.021190977222" y="175" />
	<rect height="8" style="fill: black" width="8.19119873001809" x="567.243696238048" y="175" />
	<line style="stroke: black" x1="395.366965703105" x2="438.999520064976" y1="191" y2="191" />
	<rect height="8" style="fill: black" width="8.02968213534168" x="395.366965703105" y="187" />
	<rect height="8" style="fill: black" width="8.02968213534168" x="395.366965703105" y="187" />
	<rect height="8" style="fill: black" width="7.91431313914424" x="417.702403366929" y="187" />
	<rect height="8" style="fill: black" width="11.0984974341935" x="414.51821907188" y="187" />
	<rect height="8" style="fill: black" width="3.18418429504929" x="414.51821907188" y="187" />
	<rect height="8" style="fill: black" width="1.63823974600362" x="427.393399047514" y="187" />
	<rect height="8" style="fill: black" width="11.6291948167017" x="427.393399047514" y="187" />
	<rect height="8" style="fill: black" width="9.99095507069812" x="429.031638793517" y="187" />
	<line style="stroke: black" x1="494.399712038986" x2="575.411821168826" y1="179" y2="179" />
	<rect height="8" style="fill: black" width="8.79111751024477" x="494.399712038986" y="175" />
	<rect height="8" style="fill: black" width="4.19943146158674" x="494.399712038986" y="175" />
	<rect height="8" style="fill: black" width="4.59168604865803" x="498.599143500572" y="175" />
	<rect height="8" style="fill: black" width="7.72972274522834" x="520.657695573522" y="175" />
	<rect height="8" style="fill: black" width="7.72972274522834" x="520.657695573522" y="175" />
	<rect height="8" style="fill: black" width="3.04574149961236" x="542.485509654078" y="175" />
	<rect height="8" style="fill: black" width="3.04574149961236" x="542.485509654078" y="175" />
	<rect height="8" style="fill: black" width="6.36836859009857" x="548.161664266992" y="175" />
	<rect height="8" style="fill: black" width="6.36836859009857" x="548.161664266992" y="175" />
	<rect height="8" style="fill: black" width="12.4137039908443" x="563.021190977222" y="175" />
	<rect height="8" style="fill: black" width="4.22250526082623" x="563.021190977222" y="175" />
	<rect height="8" style="fill: black" width="8.19119873001809" x="567.243696238048" y="175" />
	<line style="stroke: black" x1="265.046147598479" x2="362.602170783032" y1="191" y2="191" />
	<rect height="8" style="fill: black" width="18.1821538007162" x="265.046147598479" y="187" />
	<rect height="8" style="fill: black" width="14.3980507254402" x="265.046147598479" y="187" />
	<rect height="8" style="fill: black" width="3.78410307527596" x="279.444198323919" y="187" />
	<rect height="8" style="fill: black" width="9.89865987374017" x="293.888396647838" y="187" />
	<rect height="8" style="fill: black" width="9.89865987374017" x="293.888396647838" y="187" />
	<rect height="8" style="fill: black" width="17.3976446265736" x="321.899988924576" y="187" />
	<rect height="8" style="fill: black" width="18.8743677779008" x="321.899988924576" y="187" />
	<rect height="8" style="fill: black" width="1.4767231513272" x="339.29763355115" y="187" />
	<rect height="8" style="fill: black" width="9.36796249123196" x="353.25728209104" y="187" />
	<rect height="8" style="fill: black" width="9.36796249123196" x="353.25728209104" y="187" />
	<polyline points="473.47177612877,187 479.424816332558,187 479.424816332558,195 473.47177612877,195 " style="fill: blue" />
	<polyline points="353.69568427659,183 354.341750655296,183 354.341750655296,175 353.69568427659,175 " style="fill: blue" />
	<polyline points="455.358843725773,187 462.534795289253,187 462.534795289253,195 455.358843725773,195 " style="fill: blue" />
	<polyline points="558.983276110311,183 559.444752095101,183 559.444752095101,175 558.983276110311,175 " style="fill: blue" />
	<polyline points="674.029239118396,183 674.629157898623,183 674.629157898623,175 674.029239118396,175 " style="fill: blue" />
	<polyline points="364.655738915347,183 365.624838483405,183 365.624838483405,175 364.655738915347,175 " style="fill: blue" />
	<polyline points="500.02971905342,183 502.913943958356,183 502.913943958356,175 500.02971905342,175 " style="fill: blue" />
	<polyline points="486.600767896039,183 491.377044338613,183 491.377044338613,175 486.600767896039,175 " style="fill: blue" />
	<polyline points="473.47177612877,187 479.424816332558,187 479.424816332558,195 473.47177612877,195 " style="fill: blue" />
	<polyline points="346.842765902462,183 347.373463284971,183 347.373463284971,175 346.842765902462,175 " style="fill: blue" />
	<polyline points="391.605936427068,183 392.390445601211,183 392.390445601211,175 391.605936427068,175 " style="fill: blue" />
	<polyline points="486.600767896039,183 491.377044338613,183 491.377044338613,175 486.600767896039,175 " style="fill: blue" />
	<polyline points="513.181784619928,183 514.335474581903,183 514.335474581903,175 513.181784619928,175 " style="fill: blue" />
	<polyline points="680.836009894045,183 681.251338280356,183 681.251338280356,175 680.836009894045,175 " style="fill: blue" />
	<polyline points="447.652194779784,187 451.920847639089,187 451.920847639089,195 447.652194779784,195 " style="fill: blue" />
	<line style="stroke: black" x1="265" x2="597.816480230369" y1="295" y2="295" />
	<text font-size="30%" x="60" y="295">cPM_Chr1b_43060747_43075170</text>
	<line style="stroke: black" x1="265.046147598479" x2="364.771107911544" y1="301" y2="301" />
	<rect height="8" style="fill: black" width="13.9827223391295" x="265.046147598479" y="297" />
	<rect height="8" style="fill: black" width="10.1986192638535" x="265.046147598479" y="297" />
	<rect height="8" style="fill: black" width="3.78410307527596" x="275.244766862332" y="297" />
	<rect height="8" style="fill: black" width="9.89865987374017" x="289.365931996899" y="297" />
	<rect height="8" style="fill: black" width="9.89865987374017" x="289.365931996899" y="297" />
	<rect height="8" style="fill: black" width="17.3284232288552" x="317.492893269834" y="297" />
	<rect height="8" style="fill: black" width="1.4767231513272" x="334.821316498689" y="297" />
	<rect height="8" style="fill: black" width="18.8051463801824" x="317.492893269834" y="297" />
	<rect height="8" style="fill: black" width="15.6440358843726" x="349.150145826411" y="297" />
	<rect height="8" style="fill: black" width="15.6440358843726" x="349.150145826411" y="297" />
	<line style="stroke: black" x1="497.699265330232" x2="597.816480230369" y1="301" y2="301" />
	<rect height="8" style="fill: black" width="12.7136633809577" x="497.699265330232" y="297" />
	<rect height="8" style="fill: black" width="11.7214900136597" x="497.699265330232" y="297" />
	<rect height="8" style="fill: black" width="0.992173367297966" x="509.420755343892" y="297" />
	<rect height="8" style="fill: black" width="1.89205153763798" x="513.435596411563" y="297" />
	<rect height="8" style="fill: black" width="1.89205153763798" x="513.435596411563" y="297" />
	<rect height="8" style="fill: black" width="2.791929707978" x="517.819618267065" y="297" />
	<rect height="8" style="fill: black" width="2.791929707978" x="517.819618267065" y="297" />
	<rect height="8" style="fill: black" width="1.52287074980618" x="522.849706501274" y="297" />
	<rect height="8" style="fill: black" width="1.52287074980618" x="522.849706501274" y="297" />
	<rect height="8" style="fill: black" width="2.49197031786466" x="526.126185993281" y="297" />
	<rect height="8" style="fill: black" width="2.49197031786466" x="526.126185993281" y="297" />
	<rect height="8" style="fill: black" width="1.52287074980618" x="536.140214863218" y="297" />
	<rect height="8" style="fill: black" width="1.52287074980618" x="536.140214863218" y="297" />
	<rect height="8" style="fill: black" width="0.66914017794514" x="551.415069959759" y="297" />
	<rect height="8" style="fill: black" width="0.66914017794514" x="551.415069959759" y="297" />
	<rect height="8" style="fill: black" width="2.14586332927234" x="556.722043784841" y="297" />
	<rect height="8" style="fill: black" width="2.14586332927234" x="556.722043784841" y="297" />
	<rect height="8" style="fill: black" width="16.5669878539521" x="581.272566175656" y="297" />
	<rect height="8" style="fill: black" width="5.0070144349688" x="581.272566175656" y="297" />
	<rect height="8" style="fill: black" width="11.5599734189833" x="586.279580610625" y="297" />
	<line style="stroke: black" x1="417.240927382139" x2="497.099346550006" y1="289" y2="289" />
	<rect height="8" style="fill: black" width="32.8570901170303" x="417.240927382139" y="285" />
	<rect height="8" style="fill: black" width="24.2044154022225" x="417.240927382139" y="285" />
	<rect height="8" style="fill: black" width="8.65267471480784" x="441.445342784362" y="285" />
	<rect height="8" style="fill: black" width="3.04574149961236" x="464.03459223982" y="285" />
	<rect height="8" style="fill: black" width="3.04574149961236" x="464.03459223982" y="285" />
	<rect height="8" style="fill: black" width="6.36836859009857" x="469.456935061099" y="285" />
	<rect height="8" style="fill: black" width="6.36836859009857" x="469.456935061099" y="285" />
	<rect height="8" style="fill: black" width="13.7289105474951" x="483.39350980175" y="285" />
	<rect height="8" style="fill: black" width="4.22250526082623" x="483.39350980175" y="285" />
	<rect height="8" style="fill: black" width="9.50640528666888" x="487.616015062576" y="285" />
	<polyline points="267.999593901133,90 347.027356296378,90 346.819692103223,170 267.653486912541,170 " style="fill: red" />
	<polyline points="438.514970280947,90 492.692250895263,90 623.289954590763,170 569.41263336656,170 " style="fill: red" />
	<polyline points="492.692250895263,90 540.5703843172,90 670.72968582715,170 622.620814412818,170 " style="fill: red" />
	<polyline points="365.832502676561,90 391.882822017942,90 391.582862627829,170 365.647912282645,170 " style="fill: red" />
	<polyline points="392.828847786761,90 420.055930889357,90 418.833019529664,170 392.41351940045,170 " style="fill: red" />
	<polyline points="347.511906080408,90 353.787979473548,90 353.672610477351,170 347.39653708421,170 " style="fill: red" />
	<polyline points="359.510281684941,90 364.817255510023,90 364.632665116107,170 359.394912688744,170 " style="fill: red" />
	<polyline points="427.647210839148,90 433.715620039133,90 447.559899582826,170 441.468416583601,170 " style="fill: red" />
	<polyline points="354.410972053014,90 358.587329715362,90 358.495034518404,170 354.364824454535,170 " style="fill: red" />
	<polyline points="423.078598589729,90 426.65503747185,90 422.547901207221,170 418.948388525861,170 " style="fill: red" />
	<polyline points="541.516410086019,90 544.400634990955,90 674.006165319157,170 671.121940414221,170 " style="fill: red" />
	<polyline points="269.614759847898,200 346.819692103223,200 342.343375050762,280 265.392254587071,280 " style="fill: red" />
	<polyline points="605.153948388526,200 673.983091519917,200 592.186473215934,280 522.803558902795,280 " style="fill: red" />
	<polyline points="559.46782589434,200 602.661978070661,200 522.780485103555,280 479.840144718869,280 " style="fill: red" />
	<polyline points="514.358548381142,200 555.476058625909,200 476.771329420017,280 435.584597777532,280 " style="fill: red" />
	<polyline points="502.937017757596,200 513.158710820689,200 434.31553881936,280 424.116919555506,280 " style="fill: red" />
	<polyline points="371.531731088714,200 377.646287887178,200 372.870011444604,280 366.916971240817,280 " style="fill: red" />
	<polyline points="354.364824454535,200 358.67962491232,200 354.410972053014,280 350.073097795991,280 " style="fill: red" />
	<polyline points="441.07616199653,200 447.398382988149,200 384.706870454462,280 378.500018459039,280 " style="fill: red" />
	<polyline points="495.207295012368,200 499.983571454942,200 421.163473252852,280 416.617934802673,280 " style="fill: red" />
	<polyline points="347.534979879647,200 353.672610477351,200 349.565474212722,280 343.150958024144,280 " style="fill: red" />
	<polyline points="674.652231697862,200 677.859489792151,200 596.062871488168,280 592.855613393879,280 " style="fill: red" />
	<polyline points="466.388119762248,200 469.710746852734,200 390.19843467346,280 386.898881382213,280 " style="fill: red" />
	<polyline points="359.464134086462,200 364.632665116107,200 360.202495662126,280 355.195481227157,280 " style="fill: red" />
	<polyline points="556.099051205375,200 558.867907114114,200 479.378668734079,280 476.63288662458,280 " style="fill: red" />
	<line style="stroke: black" x1="700" x2="3007.37992394876" y1="357" y2="357" />
	<text style="text-anchor: start; font-weight: 100; font-size: 25%" x="3012.37992394876" y="360">100 Kb</text>
	<rect height="8" style="fill: black" width="10" x="620" y="353" />
	<text style="text-anchor: start; font-weight: 100; font-size: 25%" x="635" y="360">GENE</text>
	<rect height="8" style="fill: blue" width="10" x="540" y="353" />
	<text style="text-anchor: start; font-weight: 100; font-size: 25%" x="555" y="360">TE</text>
	<!-- 
	Generated using the Perl SVG Module V2.52
	by Ronan Oger
	Info: http://www.roitsystems.com/
 -->
</svg>